<mxfile host="app.diagrams.net" modified="2024-02-29T15:53:57.118Z" agent="Mozilla/5.0 (Windows NT 10.0; Win64; x64) AppleWebKit/537.36 (KHTML, like Gecko) Chrome/122.0.0.0 Safari/537.36" etag="3H2cXxPL6BHYRcrsKOWV" version="23.1.8" type="device">
  <diagram name="Страница — 1" id="zlo3eZe_culXzpx8r6Gk">
    <mxGraphModel dx="1354" dy="566" grid="1" gridSize="10" guides="1" tooltips="1" connect="1" arrows="1" fold="1" page="1" pageScale="1" pageWidth="827" pageHeight="1169" math="0" shadow="0">
      <root>
        <mxCell id="0" />
        <mxCell id="1" parent="0" />
        <mxCell id="4C_NbnH7VWqDaz8hS9B3-13" style="edgeStyle=orthogonalEdgeStyle;rounded=0;orthogonalLoop=1;jettySize=auto;html=1;exitX=0.5;exitY=1;exitDx=0;exitDy=0;entryX=0.75;entryY=0;entryDx=0;entryDy=0;" parent="1" source="4C_NbnH7VWqDaz8hS9B3-1" target="4C_NbnH7VWqDaz8hS9B3-5" edge="1">
          <mxGeometry relative="1" as="geometry" />
        </mxCell>
        <mxCell id="4C_NbnH7VWqDaz8hS9B3-14" style="edgeStyle=orthogonalEdgeStyle;rounded=0;orthogonalLoop=1;jettySize=auto;html=1;exitX=0.5;exitY=1;exitDx=0;exitDy=0;entryX=0.5;entryY=0;entryDx=0;entryDy=0;" parent="1" source="4C_NbnH7VWqDaz8hS9B3-1" target="4C_NbnH7VWqDaz8hS9B3-2" edge="1">
          <mxGeometry relative="1" as="geometry" />
        </mxCell>
        <mxCell id="4C_NbnH7VWqDaz8hS9B3-15" style="edgeStyle=orthogonalEdgeStyle;rounded=0;orthogonalLoop=1;jettySize=auto;html=1;exitX=0.5;exitY=1;exitDx=0;exitDy=0;entryX=0.5;entryY=0;entryDx=0;entryDy=0;" parent="1" source="4C_NbnH7VWqDaz8hS9B3-1" target="4C_NbnH7VWqDaz8hS9B3-3" edge="1">
          <mxGeometry relative="1" as="geometry" />
        </mxCell>
        <mxCell id="4C_NbnH7VWqDaz8hS9B3-16" style="edgeStyle=orthogonalEdgeStyle;rounded=0;orthogonalLoop=1;jettySize=auto;html=1;exitX=0.5;exitY=1;exitDx=0;exitDy=0;entryX=0.5;entryY=0;entryDx=0;entryDy=0;" parent="1" source="4C_NbnH7VWqDaz8hS9B3-1" target="4C_NbnH7VWqDaz8hS9B3-4" edge="1">
          <mxGeometry relative="1" as="geometry" />
        </mxCell>
        <mxCell id="4C_NbnH7VWqDaz8hS9B3-1" value="информационная система" style="rounded=0;whiteSpace=wrap;html=1;" parent="1" vertex="1">
          <mxGeometry x="400" y="220" width="120" height="60" as="geometry" />
        </mxCell>
        <mxCell id="4C_NbnH7VWqDaz8hS9B3-2" value="подсистема&lt;br&gt;управления" style="rounded=0;whiteSpace=wrap;html=1;" parent="1" vertex="1">
          <mxGeometry x="320" y="320" width="120" height="60" as="geometry" />
        </mxCell>
        <mxCell id="4C_NbnH7VWqDaz8hS9B3-3" value="подсистема&lt;br&gt;формирования отчетов" style="rounded=0;whiteSpace=wrap;html=1;" parent="1" vertex="1">
          <mxGeometry x="480" y="320" width="120" height="60" as="geometry" />
        </mxCell>
        <mxCell id="4C_NbnH7VWqDaz8hS9B3-4" value="подсистема сервисных функций" style="rounded=0;whiteSpace=wrap;html=1;" parent="1" vertex="1">
          <mxGeometry x="640" y="320" width="120" height="60" as="geometry" />
        </mxCell>
        <mxCell id="4C_NbnH7VWqDaz8hS9B3-5" value="подсистема&lt;br&gt;безопасности" style="rounded=0;whiteSpace=wrap;html=1;" parent="1" vertex="1">
          <mxGeometry x="160" y="320" width="120" height="60" as="geometry" />
        </mxCell>
        <mxCell id="4C_NbnH7VWqDaz8hS9B3-11" style="edgeStyle=orthogonalEdgeStyle;rounded=0;orthogonalLoop=1;jettySize=auto;html=1;exitX=1;exitY=0.5;exitDx=0;exitDy=0;shape=link;" parent="1" source="4C_NbnH7VWqDaz8hS9B3-6" edge="1">
          <mxGeometry relative="1" as="geometry">
            <mxPoint x="250" y="455" as="targetPoint" />
          </mxGeometry>
        </mxCell>
        <mxCell id="4C_NbnH7VWqDaz8hS9B3-6" value="выдача роли пользователя" style="text;html=1;strokeColor=none;fillColor=none;align=center;verticalAlign=middle;whiteSpace=wrap;rounded=0;" parent="1" vertex="1">
          <mxGeometry x="160" y="440" width="60" height="30" as="geometry" />
        </mxCell>
        <mxCell id="4C_NbnH7VWqDaz8hS9B3-10" style="edgeStyle=orthogonalEdgeStyle;rounded=0;orthogonalLoop=1;jettySize=auto;html=1;exitX=1;exitY=0.5;exitDx=0;exitDy=0;shape=link;" parent="1" source="4C_NbnH7VWqDaz8hS9B3-7" edge="1">
          <mxGeometry relative="1" as="geometry">
            <mxPoint x="250" y="415" as="targetPoint" />
          </mxGeometry>
        </mxCell>
        <mxCell id="4C_NbnH7VWqDaz8hS9B3-7" value="аутетификация пользователя" style="text;html=1;strokeColor=none;fillColor=none;align=center;verticalAlign=middle;whiteSpace=wrap;rounded=0;" parent="1" vertex="1">
          <mxGeometry x="160" y="400" width="60" height="30" as="geometry" />
        </mxCell>
        <mxCell id="4C_NbnH7VWqDaz8hS9B3-12" style="edgeStyle=orthogonalEdgeStyle;rounded=0;orthogonalLoop=1;jettySize=auto;html=1;exitX=1;exitY=0.5;exitDx=0;exitDy=0;shape=link;" parent="1" source="4C_NbnH7VWqDaz8hS9B3-8" edge="1">
          <mxGeometry relative="1" as="geometry">
            <mxPoint x="250" y="495" as="targetPoint" />
          </mxGeometry>
        </mxCell>
        <mxCell id="4C_NbnH7VWqDaz8hS9B3-8" value="авторизация пользователя" style="text;html=1;strokeColor=none;fillColor=none;align=center;verticalAlign=middle;whiteSpace=wrap;rounded=0;" parent="1" vertex="1">
          <mxGeometry x="160" y="480" width="60" height="30" as="geometry" />
        </mxCell>
        <mxCell id="4C_NbnH7VWqDaz8hS9B3-9" value="" style="endArrow=none;html=1;rounded=0;entryX=0.75;entryY=1;entryDx=0;entryDy=0;" parent="1" target="4C_NbnH7VWqDaz8hS9B3-5" edge="1">
          <mxGeometry width="50" height="50" relative="1" as="geometry">
            <mxPoint x="250" y="500" as="sourcePoint" />
            <mxPoint x="310" y="440" as="targetPoint" />
            <Array as="points">
              <mxPoint x="250" y="420" />
            </Array>
          </mxGeometry>
        </mxCell>
        <mxCell id="4C_NbnH7VWqDaz8hS9B3-21" style="edgeStyle=orthogonalEdgeStyle;rounded=0;orthogonalLoop=1;jettySize=auto;html=1;exitX=1;exitY=0.5;exitDx=0;exitDy=0;shape=link;" parent="1" source="4C_NbnH7VWqDaz8hS9B3-17" edge="1">
          <mxGeometry relative="1" as="geometry">
            <mxPoint x="410" y="415" as="targetPoint" />
          </mxGeometry>
        </mxCell>
        <mxCell id="4C_NbnH7VWqDaz8hS9B3-17" value="создание проекта" style="text;html=1;strokeColor=none;fillColor=none;align=center;verticalAlign=middle;whiteSpace=wrap;rounded=0;" parent="1" vertex="1">
          <mxGeometry x="320" y="400" width="60" height="30" as="geometry" />
        </mxCell>
        <mxCell id="4C_NbnH7VWqDaz8hS9B3-22" style="edgeStyle=orthogonalEdgeStyle;rounded=0;orthogonalLoop=1;jettySize=auto;html=1;exitX=1;exitY=0.5;exitDx=0;exitDy=0;shape=link;" parent="1" source="4C_NbnH7VWqDaz8hS9B3-18" edge="1">
          <mxGeometry relative="1" as="geometry">
            <mxPoint x="410" y="455" as="targetPoint" />
          </mxGeometry>
        </mxCell>
        <mxCell id="4C_NbnH7VWqDaz8hS9B3-18" value="создание задач" style="text;html=1;strokeColor=none;fillColor=none;align=center;verticalAlign=middle;whiteSpace=wrap;rounded=0;" parent="1" vertex="1">
          <mxGeometry x="320" y="440" width="60" height="30" as="geometry" />
        </mxCell>
        <mxCell id="4C_NbnH7VWqDaz8hS9B3-23" style="edgeStyle=orthogonalEdgeStyle;rounded=0;orthogonalLoop=1;jettySize=auto;html=1;exitX=1;exitY=0.5;exitDx=0;exitDy=0;shape=link;" parent="1" source="4C_NbnH7VWqDaz8hS9B3-19" edge="1">
          <mxGeometry relative="1" as="geometry">
            <mxPoint x="410" y="495" as="targetPoint" />
          </mxGeometry>
        </mxCell>
        <mxCell id="4C_NbnH7VWqDaz8hS9B3-19" value="создание подзадач" style="text;html=1;strokeColor=none;fillColor=none;align=center;verticalAlign=middle;whiteSpace=wrap;rounded=0;" parent="1" vertex="1">
          <mxGeometry x="320" y="480" width="60" height="30" as="geometry" />
        </mxCell>
        <mxCell id="4C_NbnH7VWqDaz8hS9B3-20" value="" style="endArrow=none;html=1;rounded=0;entryX=0.75;entryY=1;entryDx=0;entryDy=0;" parent="1" edge="1">
          <mxGeometry width="50" height="50" relative="1" as="geometry">
            <mxPoint x="413" y="500" as="sourcePoint" />
            <mxPoint x="413" y="380" as="targetPoint" />
            <Array as="points">
              <mxPoint x="413" y="420" />
            </Array>
          </mxGeometry>
        </mxCell>
        <mxCell id="4C_NbnH7VWqDaz8hS9B3-30" style="edgeStyle=orthogonalEdgeStyle;rounded=0;orthogonalLoop=1;jettySize=auto;html=1;exitX=1;exitY=0.5;exitDx=0;exitDy=0;shape=link;" parent="1" source="4C_NbnH7VWqDaz8hS9B3-26" edge="1">
          <mxGeometry relative="1" as="geometry">
            <mxPoint x="570" y="415" as="targetPoint" />
          </mxGeometry>
        </mxCell>
        <mxCell id="4C_NbnH7VWqDaz8hS9B3-26" value="отчет о проведенной работе" style="text;html=1;strokeColor=none;fillColor=none;align=center;verticalAlign=middle;whiteSpace=wrap;rounded=0;" parent="1" vertex="1">
          <mxGeometry x="480" y="400" width="60" height="30" as="geometry" />
        </mxCell>
        <mxCell id="4C_NbnH7VWqDaz8hS9B3-31" style="edgeStyle=orthogonalEdgeStyle;rounded=0;orthogonalLoop=1;jettySize=auto;html=1;exitX=1;exitY=0.5;exitDx=0;exitDy=0;shape=link;" parent="1" source="4C_NbnH7VWqDaz8hS9B3-27" edge="1">
          <mxGeometry relative="1" as="geometry">
            <mxPoint x="570" y="455" as="targetPoint" />
          </mxGeometry>
        </mxCell>
        <mxCell id="4C_NbnH7VWqDaz8hS9B3-27" value="статус проекта" style="text;html=1;strokeColor=none;fillColor=none;align=center;verticalAlign=middle;whiteSpace=wrap;rounded=0;" parent="1" vertex="1">
          <mxGeometry x="480" y="440" width="60" height="30" as="geometry" />
        </mxCell>
        <mxCell id="4C_NbnH7VWqDaz8hS9B3-32" style="edgeStyle=orthogonalEdgeStyle;rounded=0;orthogonalLoop=1;jettySize=auto;html=1;exitX=1;exitY=0.5;exitDx=0;exitDy=0;shape=link;" parent="1" source="4C_NbnH7VWqDaz8hS9B3-28" edge="1">
          <mxGeometry relative="1" as="geometry">
            <mxPoint x="570" y="495" as="targetPoint" />
          </mxGeometry>
        </mxCell>
        <mxCell id="4C_NbnH7VWqDaz8hS9B3-28" value="статус выполнения задачи" style="text;html=1;strokeColor=none;fillColor=none;align=center;verticalAlign=middle;whiteSpace=wrap;rounded=0;" parent="1" vertex="1">
          <mxGeometry x="480" y="480" width="60" height="30" as="geometry" />
        </mxCell>
        <mxCell id="4C_NbnH7VWqDaz8hS9B3-29" value="" style="endArrow=none;html=1;rounded=0;entryX=0.75;entryY=1;entryDx=0;entryDy=0;" parent="1" edge="1">
          <mxGeometry width="50" height="50" relative="1" as="geometry">
            <mxPoint x="570" y="500" as="sourcePoint" />
            <mxPoint x="570" y="380" as="targetPoint" />
            <Array as="points">
              <mxPoint x="570" y="420" />
            </Array>
          </mxGeometry>
        </mxCell>
        <mxCell id="4C_NbnH7VWqDaz8hS9B3-37" style="edgeStyle=orthogonalEdgeStyle;rounded=0;orthogonalLoop=1;jettySize=auto;html=1;exitX=1;exitY=0.5;exitDx=0;exitDy=0;shape=link;" parent="1" source="4C_NbnH7VWqDaz8hS9B3-33" edge="1">
          <mxGeometry relative="1" as="geometry">
            <mxPoint x="730" y="415" as="targetPoint" />
          </mxGeometry>
        </mxCell>
        <mxCell id="4C_NbnH7VWqDaz8hS9B3-33" value="мессенджер" style="text;html=1;strokeColor=none;fillColor=none;align=center;verticalAlign=middle;whiteSpace=wrap;rounded=0;" parent="1" vertex="1">
          <mxGeometry x="640" y="400" width="60" height="30" as="geometry" />
        </mxCell>
        <mxCell id="4C_NbnH7VWqDaz8hS9B3-38" style="edgeStyle=orthogonalEdgeStyle;rounded=0;orthogonalLoop=1;jettySize=auto;html=1;exitX=1;exitY=0.5;exitDx=0;exitDy=0;shape=link;" parent="1" source="4C_NbnH7VWqDaz8hS9B3-34" edge="1">
          <mxGeometry relative="1" as="geometry">
            <mxPoint x="730" y="455" as="targetPoint" />
          </mxGeometry>
        </mxCell>
        <mxCell id="4C_NbnH7VWqDaz8hS9B3-34" value="информация о проектах" style="text;html=1;strokeColor=none;fillColor=none;align=center;verticalAlign=middle;whiteSpace=wrap;rounded=0;" parent="1" vertex="1">
          <mxGeometry x="640" y="440" width="60" height="30" as="geometry" />
        </mxCell>
        <mxCell id="4C_NbnH7VWqDaz8hS9B3-39" style="edgeStyle=orthogonalEdgeStyle;rounded=0;orthogonalLoop=1;jettySize=auto;html=1;exitX=1;exitY=0.5;exitDx=0;exitDy=0;shape=link;" parent="1" source="4C_NbnH7VWqDaz8hS9B3-35" edge="1">
          <mxGeometry relative="1" as="geometry">
            <mxPoint x="730" y="495" as="targetPoint" />
          </mxGeometry>
        </mxCell>
        <mxCell id="4C_NbnH7VWqDaz8hS9B3-35" value="настройка статуса работы" style="text;html=1;strokeColor=none;fillColor=none;align=center;verticalAlign=middle;whiteSpace=wrap;rounded=0;" parent="1" vertex="1">
          <mxGeometry x="640" y="480" width="60" height="30" as="geometry" />
        </mxCell>
        <mxCell id="4C_NbnH7VWqDaz8hS9B3-36" value="" style="endArrow=none;html=1;rounded=0;entryX=0.75;entryY=1;entryDx=0;entryDy=0;" parent="1" edge="1">
          <mxGeometry width="50" height="50" relative="1" as="geometry">
            <mxPoint x="730" y="500" as="sourcePoint" />
            <mxPoint x="730" y="380" as="targetPoint" />
            <Array as="points">
              <mxPoint x="730" y="420" />
            </Array>
          </mxGeometry>
        </mxCell>
      </root>
    </mxGraphModel>
  </diagram>
</mxfile>
